<svg width="44" height="45" viewBox="0 0 44 45" fill="none" xmlns="http://www.w3.org/2000/svg">
<rect x="0.5" y="0.984375" width="43" height="43" rx="9.5" stroke="#141414"/>
<g opacity="0.8">
<path d="M33.1279 17.8956C33.1142 16.9556 32.9401 16.023 32.6067 15.1438C32.0233 13.6424 30.8354 12.4552 29.3315 11.874C28.4621 11.5474 27.5428 11.3723 26.6124 11.3525C25.4158 11.2991 25.0364 11.2842 21.9988 11.2842C18.9612 11.2842 18.5719 11.2842 17.384 11.3525C16.4548 11.3723 15.5355 11.5474 14.6661 11.874C13.1622 12.4552 11.973 13.6424 11.3909 15.1438C11.0638 16.0118 10.8871 16.9295 10.8697 17.8571C10.8162 19.053 10.8 19.4318 10.8 22.4643C10.8 25.4968 10.8 25.8843 10.8697 27.0715C10.8884 28.0004 11.0638 28.9168 11.3909 29.7873C11.9743 31.2875 13.1622 32.4747 14.6673 33.0558C15.5331 33.3936 16.4523 33.5848 17.3852 33.6146C18.5831 33.668 18.9625 33.6842 22.0001 33.6842C25.0376 33.6842 25.427 33.6842 26.6149 33.6146C27.5441 33.596 28.4633 33.4209 29.334 33.0943C30.8379 32.5119 32.0258 31.3247 32.6092 29.8246C32.9363 28.9553 33.1117 28.0389 33.1304 27.1087C33.1839 25.9141 33.2001 25.5353 33.2001 22.5016C33.1976 19.469 33.1976 19.0841 33.1279 17.8956ZM21.9913 28.1991C18.8144 28.1991 16.2408 25.6297 16.2408 22.4581C16.2408 19.2865 18.8144 16.7172 21.9913 16.7172C25.1658 16.7172 27.7419 19.2865 27.7419 22.4581C27.7419 25.6297 25.1658 28.1991 21.9913 28.1991ZM27.9707 17.8435C27.2281 17.8435 26.6298 17.2449 26.6298 16.5048C26.6298 15.7647 27.2281 15.1661 27.9707 15.1661C28.7108 15.1661 29.3104 15.7647 29.3104 16.5048C29.3104 17.2449 28.7108 17.8435 27.9707 17.8435Z" fill="#141414"/>
<path d="M21.9931 25.9635C23.9281 25.9635 25.4966 24.395 25.4966 22.46C25.4966 20.5251 23.9281 18.9565 21.9931 18.9565C20.0582 18.9565 18.4896 20.5251 18.4896 22.46C18.4896 24.395 20.0582 25.9635 21.9931 25.9635Z" fill="#141414"/>
</g>
</svg>
