<svg width="44" height="45" viewBox="0 0 44 45" fill="none" xmlns="http://www.w3.org/2000/svg">
<rect x="0.5" y="0.984375" width="43" height="43" rx="9.5" stroke="#141414"/>
<g opacity="0.8">
<path d="M25.08 12.5446C25.29 12.5446 25.5 12.5446 25.92 12.5446V15.6946C25.71 15.6946 25.29 15.6946 24.87 15.6946C24.45 15.6946 24.03 15.6946 23.82 15.9046C23.61 16.1146 23.61 16.3246 23.61 16.8146C23.61 17.2346 23.61 17.5146 23.61 17.9346H25.92V20.5946H23.61V32.1446H20.04V20.5246H18.15V17.8646H20.04V16.9546C20.04 15.4146 20.25 14.2946 20.67 13.8046C21.3 12.8946 22.56 12.4746 24.45 12.4746C24.66 12.5446 24.87 12.5446 25.08 12.5446Z" fill="#141414"/>
</g>
</svg>
